<?xml version="1.0" encoding="UTF-8"?>
<svg id="Layer_2" data-name="Layer 2" xmlns="http://www.w3.org/2000/svg" viewBox="0 0 1002.09 986.67">
  <defs>
    <style>
      .cls-1 {
        fill: #fff;
        stroke-width: 0px;
      }
    </style>
  </defs>
  <g id="Layer_2-2" data-name="Layer 2">
    <g id="Layer_1-2" data-name="Layer 1-2">
      <g>
        <g>
          <path class="cls-1" d="M382.16,521.72l-11.76-12.07c-35.87-36.82-94.78-37.6-131.6-1.75L28.13,713.08c-.31.29-.6.58-.89.88-35.94,35.94-36.42,94.2-.85,130.72l110.9,113.85c35.86,36.83,94.78,37.61,131.6,1.75l210.67-205.18c.3-.28.59-.58.89-.88,35.94-35.94,36.42-94.2.84-130.71l-5.41-5.55-57.57,56.06,5.41,5.55c4.82,4.95,4.78,12.95-.1,17.83l-.14.14-210.68,205.17c-5.01,4.88-13.06,4.78-17.95-.24l-110.89-113.86c-4.82-4.95-4.78-12.95.1-17.83l.14-.14,210.66-205.17c5.02-4.89,13.08-4.78,17.96.24l11.77,12.08,57.56-56.07h.01Z"/>
          <path class="cls-1" d="M733.19,26.4l-210.67,205.18c-.3.28-.59.58-.89.88-35.94,35.94-36.42,94.2-.84,130.71l11.77,12.08,57.56-56.07-11.76-12.07c-4.82-4.95-4.78-12.95.1-17.83l.14-.14,210.67-205.18c3.11-3.03,6.63-3.63,9.03-3.59,2.39.02,5.89.71,8.93,3.83l110.89,113.86c4.82,4.95,4.78,12.95-.1,17.83l-.14.14-210.67,205.16c-5.02,4.89-13.07,4.79-17.96-.23l-5.41-5.55-57.57,56.06,5.41,5.55c35.87,36.82,94.78,37.6,131.6,1.75l210.67-205.18c.31-.29.6-.58.89-.88,35.94-35.94,36.42-94.2.85-130.72l-110.9-113.85c-35.86-36.83-94.78-37.61-131.6-1.75h0Z"/>
        </g>
        <path class="cls-1" d="M394.59,670.84l286.78-279.3,14.31-13.93c7.9-7.7-.79-29.43-19.41-48.56h0c-18.62-19.12-40.13-28.38-48.03-20.69l-315.39,307.17c-7.9,7.7.79,29.43,19.41,48.56h0c18.62,19.12,40.13,28.38,48.03,20.69l14.31-13.93h0Z"/>
      </g>
    </g>
  </g>
</svg>