<?xml version="1.0" encoding="UTF-8"?>
<svg id="Layer_2" data-name="Layer 2" xmlns="http://www.w3.org/2000/svg" viewBox="0 0 854.47 143.37">
  <defs>
    <style>
      .cls-1 {
        fill: #fff;
        stroke-width: 0px;
      }
    </style>
  </defs>
  <g id="Layer_1-2" data-name="Layer 1">
    <g>
      <path class="cls-1" d="M10.21,58.02c0-.53-2.29-4.4-2.29-6.33,0-3.87-.18-5.46-.18-6.86,0-3.34,1.23-5.81,1.23-7.39,0-2.46,2.99-2.64,2.99-4.22,0-.35-3.52-2.46-3.52-4.22,0-.35-.53-.88-.53-1.76v-5.28c0-3.17-.18-4.22-1.41-6.86-1.41-2.64-3.7-5.63-3.7-7.92,0-1.41,1.06-2.64,3.87-2.64,3.34,0,5.46,1.58,7.57,2.46.35,0,3.52.53,3.52,1.06,0,.7,4.4.35,4.4,1.06,0-1.23,7.39-2.46,10.56-2.46,4.22,0,8.45-.88,11.09-.88,7.04,0,5.63-.88,14.61-.88,20.77,0,5.19.35,11.52.35,2.46-.18,10.56-1.57,11.97-1.57,1.59,0,2.47.53,2.47,1.41,0,2.81-5.46,4.93-5.46,12.67,0,2.46-2.29,2.64-3.34,2.64-1.94,0-6.86-5.29-13.03-5.29-2.64,0-7.83-1.58-10.99-1.58-1.58,0-2.64,1.41-3.87,1.41-12.85,0-7.04,5.46-16.02,5.46-1.93,0-3.7,1.41-3.7,1.76,0,2.82,8.45,1.94,8.45,3.7,0,.88,0,1.23-.88,1.23-.35,0-1.41-.18-1.94-.18-1.06,0-2.29.18-2.29.7,0,2.11,5.98,1.06,5.98,5.99,0,2.64-2.29,4.58-2.29,5.98,0,2.11,2.29.88,2.29,19.18,6.86-1.41,7.92-1.41,9.15-1.41,1.94,0,3.7-.88,4.4-.88,5.28,0,3.71-2.84,13.22-2.84,2.11,0,4.4.7,4.4,2.29,0,1.76-2.81,4.4-4.22,7.04-1.59,2.81-.35,6.33-5.1,6.33-2.11,0-.9-.86-3.54-1.03-5.81-.35-5.46-2.99-7.74-2.99-1.41,0-.53,2.29-2.11,2.29-2.46,0-6.51.18-8.62.88,0,1.41.18,6.51.18,7.22,0,5.46-6.16,5.81-6.16,8.8,0,.7.35.88,1.06.88,1.23,0,3.17-.7,4.05-.7,1.41,0,1.41,1.23,1.41,1.41,0,.35-7.74,3.17-7.74,5.98,0,.7.53,1.06,1.23,1.06.88,0,3.7-3.34,5.46-3.34.88,0,1.23.7,1.23,1.41,0,1.58-.88,2.11-.88,3.34,0,.35.88,4.58.88,8.27,0,9.5-4.58,5.81-4.58,7.74,0,1.23,2.46,1.23,3.17,2.81.53,1.06.53,3.87.53,4.05,0,.88-2.81.88-2.81,1.58,0,2.47,3.87,1.06,3.87,5.28,0,1.41,1.23,1.76,1.23,4.05,0,1.76,2.99,7.39,2.99,10.03,0,1.59-1.23,2.11-2.99,2.11-7.04,0-5.28-3.17-7.57-3.17-2.46,0-8.98.88-11.62,1.41-5.46,0-8.1,1.76-12.32,1.76-2.29,0-3.17-1.05-3.17-2.46,0-2.29,1.76-2.11,2.82-9.33.53-3.34,4.93-3.34,6.33-5.98.7-1.41,2.82-3.7,2.82-4.05,0-.18-.18-.35-.35-.35-.35,0-.88.35-1.59,1.06-1.58,1.76-4.75,3.17-5.1,3.17-.18,0-1.06-.88-1.06-1.41,0-5.98.88-6.69.88-8.8-.18-2.64-1.41-3.34-1.41-5.63,0-2.64,2.11-4.93,2.11-5.98,0-.35-.18-.53-.7-.53-1.93,0-1.93-3.34-1.93-4.05,0-1.41.35-3.87,1.23-3.87h3.17c1.58,0,2.11-.53,2.11-1.23,0-.35-2.29-3.52-3.87-4.22-1.94-.7-2.29-4.58-2.29-11.44-3.52.88-4.22,1.41-5.28,1.41-1.41,0-2.46-.53-2.46-1.59,0-2.64,5.1-6.51,7.74-7.92,0-6.86,2.46-6.86,2.46-9.15ZM15.66,124.55c0,.18.18.35.35.35,1.23,0,2.99-.88,2.99-2.47,0-.53-.53-.7-1.23-.7-1.58,0-2.11,2.29-2.11,2.81ZM29.04,39.19c0,.88.7,1.58,1.23,1.58.88,0,2.11-1.58,2.11-2.64,0-.7-.7-.88-1.23-.88-.88,0-2.11.7-2.11,1.94ZM31.85,106.07c0,.53.53.7,1.06.7,1.06,0,2.29-.53,2.29-1.94,0-.7-.35-1.41-1.23-1.41-1.06,0-2.11,1.58-2.11,2.64Z"/>
      <path class="cls-1" d="M81.79,131.57h-2.54c-.9,0-1.94-.59-1.94-1.65,0-1.3,2.09-4.36,2.09-6.48,0-2,2.69-3.65,2.99-3.65.75,0,2.09.82,2.99.82.3,0,1.35-1.3,1.35-1.3,0-1.18-5.83-.24-5.83-4.71,0-1.3.3-1.41.3-2,0-1.77-.9-3.54-.9-4.01v-2.95c0-.59.3-2.36.3-3.54,0-1.41-.3-2.24-.3-4.48.15-2.36-.15-4.95,1.2-6.24,1.35-1.18,2.99-1.3,2.99-2.47,0-.24-.45-.35-.75-.35-.45,0-1.05.24-1.65.24-1.79,0-2.09-2.36-2.09-3.18,0-.59.15-1.3.15-2.24,0-4.83,1.2-5.07,1.2-6.13,0-1.3-.75-2.47-.75-3.06,0-2.12-.3-2.83-.3-4.36,0-.59.15-1.41.15-2.12,0-5.54-3.44-7.78-3.44-9.07,0-1.18,1.65-1.41,2.99-1.41,2.39,0,4.04.94,6.13.94.45,0,4.49.94,5.23.94.15,0,.3-.12.45-.24,1.65-.71,4.04-1.77,9.87-1.77.9,0,3.14,0,3.14,1.65,0,.24-1.2,3.42-2.99,3.42-.9,0-1.94-.12-2.84-.12-1.94,0-2.54.71-2.69,1.41,0,0,.45.71.6.71.3,0,1.05-.12,1.79-.12,1.79,0,3.29,0,3.29,1.06,0,.82-6.73.47-6.73,2,0,.12.3.71.75.71h2.69c2.09,0,3.44.12,3.44.94,0,.47-.6,1.41-.6,2.12,0,1.65.9,3.06.9,3.42s-5.23,2.24-5.23,3.89c0,.24.15.35.6.35.6,0,1.64-.47,2.24-.47.9,0,1.94,3.42,1.94,3.77,0,1.53-.45,1.77-.45,2.36s.75,2.24.75,2.71c0,1.65-2.09,2-2.09,2.83,0,1.65,1.94,1.77,1.94,4.24,0,2.95-.9,3.54-.9,4.36,0,1.41.9,2.36.9,3.18,0-.35-.6,2.71-2.24,2.71-.15,0-.45-.12-.6-.12-1.2,0-2.84,4.95-4.19,4.95,1.94,0,5.53-2.36,6.28-2.36.6,0,1.05.35,1.05.82,0,2.12-5.23,2.12-5.23,3.06,0,.24.3.47,1.35.47s1.79-.12,2.24-.12c1.49,0,1.64,1.88,1.64,5.07-.3,2.59-1.79,2.47-1.79,3.53,0,.82,1.65,2.12,1.79,3.3,0,2.83,1.79,4.71,2.09,5.42.45.71.6,1.3.6,1.77,0,1.3-2.54,1.41-4.79,1.41-4.34,0-7.03-.35-8.67-.59-2.24,0-7.03.71-9.87.71ZM82.99,82.9c0,.47.45.71,1.2.71,1.05,0,1.65-.71,1.65-1.18s-.3-.71-.9-.71c-.3,0-.75.12-1.05.24-.75.35-.9.71-.9.94ZM94.2,121.91c0,.35.45.71.75.71.9,0,1.79-.94,1.79-1.53,0-.35-.45-.82-.9-.82-.3,0-.45.12-.75.47-.45.35-.9.82-.9,1.18Z"/>
      <path class="cls-1" d="M119.33,131.57c-.9,0-1.94-.75-1.94-2.09,0-1.65,2.09-5.53,2.09-8.23,0-2.54,2.69-4.63,2.99-4.63.75,0,2.09,1.05,2.99,1.05.3,0,1.35-1.65,1.35-1.65,0-1.5-5.83-.3-5.83-5.98,0-1.65.3-1.79.3-2.54,0-2.24-.9-4.49-.9-5.08v-3.74c0-.75.3-2.99.3-4.49,0-1.79-.3-2.84-.3-5.68.15-2.99-.15-6.28,1.2-7.93,1.35-1.5,2.99-1.65,2.99-3.14,0-.3-.45-.45-.75-.45-.45,0-1.05.3-1.65.3-1.79,0-2.09-2.99-2.09-4.04,0-.75.15-1.65.15-2.84,0-6.13,1.2-6.43,1.2-7.78,0-1.65-.75-3.14-.75-3.89,0-2.69-.3-3.59-.3-5.53,0-.75.15-1.79.15-2.69,0-7.03-3.44-9.87-3.44-11.51,0-1.49,1.64-1.79,2.99-1.79,2.39,0,7.93,1.05,10.02,1.05,1.35,0,6.88-1.2,8.37-1.2.3,0,1.2.15,1.35.3,0-.15,5.38-1.65,8.08-1.65,4.93,0,17.64.6,16.9.6,6.88,0,16,1.79,19.14,7.78,0,.3-1.5,1.64-1.5,2.54s.3,1.2.75,1.2c.75,0,2.09-.9,3.59-1.5.45,0,.9.45.9.9s-1.79,2.84-2.84,3.89c.15,1.05.3,1.05.3,1.05.9,0,1.94-.9,2.84-.9,2.09,0,2.84,1.65,2.84,5.09,0,3.14-1.79,3.14-1.79,4.04,0,.6,1.05,1.2,1.05,2.09,0,.6-.15.75-1.05,1.65-.45.3-3.29.45-3.29,1.79,0,.45.9.6,1.2.6,1.35,0,0,.15,1.49.15,1.05,0,1.05.75,1.05,1.05-2.69,4.94-3.59,7.63-7.18,10.32-.9.6-3.14.6-3.89,1.05-.45.3-1.5,2.09-1.79,2.39-.6.45-1.94.3-2.54.6-2.39,1.05-7.03,2.09-10.62,2.09-.3,0-.45.15-.45.15,0,0,13.61,5.08,13.61,8.37,0,.15,1.65,2.09,1.65,1.94.45,0,2.24,3.44,2.24,4.34,0,1.94-1.2,2.99-1.2,5.23l.9.6c.6-.45,1.05-1.05,2.39-1.2.15,0,.75.9.9,1.5,1.2,1.2,1.5,4.34,1.5,4.49,0,.9-1.94,1.5-1.94,2.84,0,.75,3.74.75,3.74,1.05.75,1.65-.15,3.44,2.09,5.53,1.64,1.35,9.8,13.69,13.24,15.33,1.35.75,3.29,3.29,7.33,3.29.75,0,2.54.6,2.54,2.09,0,1.65-.45,2.09-2.69,2.24-1.49.15-3.89.3-5.08.3-1.94,0-4.34-.15-6.58-.3-8.07-.3-10.92-1.65-14.8-5.09-.45-.3-.45-.75-.45-1.2,0-.6-9.2-11.75-9.2-12.5,0-.45-.15-.75-.3-1.05-.3-.45-2.84-.3-2.99-.75-1.2-2.54-2.09-4.79-2.54-5.23,0-.6-1.49-3.14-1.49-4.49,0-.45-2.99-3.59-2.99-5.53,0-.45,1.05-2.24,1.05-2.39,0-1.49-2.69-1.2-3.14-2.54-.3-1.35-2.69-3.74-2.69-5.38,0-.3.15-1.35.3-1.65.45-.6.6-.9.6-1.2,0-1.05-3.44,0-4.34-1.65-2.39-3.89-4.79-4.49-8.52-4.49-1.5,0-4.93,0-4.93,1.5,0,6.28-2.54,6.28-2.54,7.48,0,.45.3.75,1.35.75.15,0,.45-.15.6-.15s.3.15.3.45c0,.15-.3,3.14-.3,3.59,0,.6.6,1.79.6,1.94,0,.75-.6,1.94-.6,2.69.3.75.3,1.49.3,2.69s0,2.54-1.35,3.29c-.15.15-2.84,1.05-2.84,2.24.9,0,1.79-.15,3.89-.15.75,0,1.05,2.84,1.05,3.29.6,8.97,3.14,10.32,3.14,13.61,0,1.05-1.65,1.2-3.59,1.2-2.24,0-8.82-1.05-10.47-1.05-1.5,0-5.98,1.35-11.37,1.35ZM123.07,54.85c0,.6.45.9,1.2.9,1.05,0,1.65-.9,1.65-1.5s-.3-.9-.9-.9c-.3,0-.75.15-1.05.3-.75.45-.9.9-.9,1.2ZM137.57,76.69c.75,0,1.79-.45,1.79-1.5s-1.05-1.49-1.79-1.49-2.24.75-2.24,1.2c0,.3,0,.6.3.75.75,1.05,1.2,1.05,1.94,1.05ZM145.2,80.58c1.05,0,2.69,0,4.19-.3.3,0,1.65.15,2.69.15,1.5,0,2.54-.9,3.89-1.2,6.88,0,10.92-5.23,13.46-11.51.75-1.64.3-2.99,1.05-4.63.45-1.05,1.65-1.79,3.29-3.44-2.69,0-2.69-3.14-2.69-3.44,0-1.79-.3-5.53-3.74-8.97-4.49-4.49-6.88-4.93-14.65-4.93-3.89,0-11.22.3-11.22,3.44,0,4.79-1.2,4.79-1.2,6.73,0,.6.75,1.05.75,1.79,0,.45-.3,1.05-1.2,1.79-.6.45-1.05,1.79-1.79,2.39-1.79,1.2-2.54,1.2-2.54,2.09,0,.15.3.3.75.3,1.64,0,2.84-1.2,4.64-1.2.6,0,.6,1.05.6,1.5,0,2.24-4.93,1.64-4.93,3.14,0,.3.3.3.6.3.9,0,2.09,1.2,2.99,1.2,1.05,0,1.2,1.35,1.2,2.84v2.24c0,3.29-.15,5.53-.15,8.37,0,.15.45.6.6.75,1.2.6,2.39.6,3.44.6ZM186.02,56.05c.6,0,1.05-.3,1.05-.75s-.45-.75-.9-.75c-.6,0-1.05.45-1.05,1.05.15.3.45.45.9.45Z"/>
      <path class="cls-1" d="M213.09,73.25c0-.75.15-1.65.15-2.84,0-6.13,1.2-6.43,1.2-7.78,0-1.65-.75-3.14-.75-3.89,0-2.69-.3-3.59-.3-5.53,0-.75.15-1.79.15-2.69,0-7.03-3.44-9.87-3.44-11.51,0-1.49,1.64-1.79,2.99-1.79,2.39,0,4.34.75,6.43.75,1.35,0,2.84.9,4.34.9,1.65,0,4.49-.9,6.43-1.05,2.69-.15,6.28-.45,12.71-.45,3.89,0,5.08-.3,7.03-.3,1.2,0,3.59.45,14.81.45,2.09,0,5.38.15,5.38,1.79,0,.75-1.64,1.64-2.39,3.44-.75,1.65-1.2,7.33-2.09,7.33-2.24-.15-5.53-4.49-8.97-4.49-3.74,0-5.53-1.2-7.03-1.2-5.08,0-5.83-.75-7.33-.75-6.58,0-9.12,2.39-9.12,3.29s1.94,1.2,1.94,2.54c0,4.34-.45,4.94-.45,5.09-.15.9,0,2.69-.6,3.59-.6,1.05-4.34,1.35-4.34,2.09,0,.9,1.05,1.64,2.69,1.64.15,0,.15.3.45.3.9,0,1.79,1.05,1.79,2.84,0,1.49-.15,2.54-.3,3.59,0,.75.15,1.65.15,2.39,0,.6-.15,2.39-.15,4.04l3.89-1.35c1.35-.3,2.39-.3,3.14-.3.15,0,3.14,1.5,3.14,1.35.6-1.2,1.65-1.79,3.89-2.09,2.24-.3,3.29-1.05,10.77-1.05,1.2,0,1.65.75,1.65,1.35,0,.15-.15.45-.15.6-.3.75-2.39,4.04-2.69,4.79-.45.9-.75,2.69-1.2,3.29-.45.75-1.5,1.79-3.44,1.79-1.5,0-1.65-1.05-3.74-1.05s-2.99-.75-4.93-.75c-1.2,0-1.94-.3-3.29-.3-1.94,0-5.23.15-6.73.6,0,1.5-.15,2.69-.15,4.49,0,1.65-.15,2.99-.3,2.99-.45,0-.9,0-.9.45,0,1.64,1.79,2.84,1.79,4.79,0,.6-.45,1.35-.45,2.84,0,.75.3,1.05.3,1.49,0,.3-.15.75-.6.75-2.84,1.79-5.38,4.49-5.38,5.23,0,.3.15.45.9.45,1.05,0,2.39-.9,3.44-.9.75,0,1.79,1.05,1.79,1.35,0,.9-7.93,3.59-7.93,4.64,0,.45.75.6,1.49.6,1.05,0,2.84-.6,4.64-.6,1.5,0,2.24.6,2.24,1.35,0,1.49-.75,3.89-.75,6.28,0,1.05.6,2.69.9,3.44.9,2.39,3.74,2.69,6.58,2.69,5.83,0,7.78.75,8.37.75,1.2,0,.9-.75,3.14-.75,3.59,0,6.28-2.69,8.67-2.69,1.64,0,4.63-2.54,6.58-3.44.3-.15.6-.15.75-.15.75,0,.9.6.9,1.2,0,.9-1.65,3.74-2.24,7.03-.15.6-.6,3.14-.6,3.59,0,.75.15,1.35.15,1.79,0,.3,0,.6-.15.9-.15.15-.3.3-.6.3-1.2,0-2.54-1.19-8.23-1.19-1.35,0-2.39-1.35-2.54-1.35-.45,0-.6,1.35-2.09,1.35h-9.72c-2.54,0-4.34.15-7.78.15-5.09,0-4.79-.9-7.03-.9-1.64,0-4.34-.9-6.13-1.05-1.05.15-5.83,1.79-8.97,1.79h-2.54c-.9,0-1.94-.75-1.94-2.09,0-1.65,2.09-5.53,2.09-8.23,0-2.54,2.69-4.63,2.99-4.63.75,0,2.09,1.05,2.99,1.05.3,0,1.35-1.65,1.35-1.65,0-1.5-5.83-.3-5.83-5.98,0-1.65.3-1.79.3-2.54,0-2.24-.9-4.49-.9-5.08v-3.74c0-.75.3-2.99.3-4.49,0-1.79.15-6.43.15-9.27-2.99.75-3.14,1.35-4.04,1.35-1.2,0-2.09-.45-2.09-1.35,0-2.24,5.08-5.38,7.33-6.58-1.65-1.2-1.94-4.04-1.94-5.09ZM216.08,69.81c0,.6.45.9,1.2.9,1.05,0,1.65-.9,1.65-1.5s-.3-.9-.9-.9c-.3,0-.75.15-1.05.3-.75.45-.9.9-.9,1.2ZM230.29,73.55c0,.15,0,.3.75.3,1.2,0,1.79-.15,1.79-1.05,0-.6-.45-1.2-.9-1.2-.15,0-.3,0-.45.15-.45.45-1.2,1.35-1.2,1.79Z"/>
      <path class="cls-1" d="M826.98,18.52c-.9-.76-4.05-3.29-4.79-3.59-.9-.3-2.53-1.66-3.59-2.39-.9-.6-4.62-2.69-4.92-2.69-.6,0-4.35-1.79-5.85-1.79-1.63-.17-2.23.13-2.99-.47-.73-.73-4.92-3.29-5.68-3.59-.73-.3-1.93.17-2.99.9-1.03.47-1.63-.9-3.29-1.03-1.93,0-4.02-.3-4.49-.17-.3.17-1.93.76-2.39.76-.73,0-3.29-1.5-4.32-1.5-1.2-.17-4.49.73-5.38.43-1.06-.43-5.85.17-7.78-.13-1.96-.3-5.25.73-7.64,1.03-2.09.47-7.78,1.5-8.37,1.5-.9,0-.9,2.86-2.39,2.56-1.5-.3-2.69-1.66-4.62-1.2-1.79.43-5.68,1.5-7.78,1.5-1.96,0-10.93,2.39-12.26,2.53-.53.07-1.53.43-2.63.9-.2.07-.4.17-.6.23-3.29,1.1-10.17,1.26-14.32,2.66-7.88,2.69-18.71,2.09-22.13,2.53-3.46.47-14.79.47-21.67,1.36-6.88.9-19.71-.47-22.63-.17-1.53.17-3.36.3-5.35.53-1.86.2-3.85.47-5.98.83-4.42.73-4.92-1.36-6.41-1.5-1.46-.17-24.59-2.09-27.55-2.99-2.96-.9-16.75-.9-22.17-1.79-5.38-.9-13.26-1.96-16.22-1.66-2.96.3-21.17-2.69-24.13-3.12-2.96-.47-25.12-1.96-27.08-2.39-1.96-.47-11.8-.9-14.26-.6-2.46.3-14.29-1.06-21.67-1.96-7.38-.9-23.13-1.5-28.05-1.63-4.92-.17-9.37-.6-11.83.73-2.46,1.36-12.3.47-15.25.3-2.96-.13-21.17,1.79-25.09,2.69-3.95.9-17.71,2.09-18.71,2.99-.96.9-6.38,1.66-8.87,2.69-2.33,1-9.11,1.83-9.5,1.96-.47.17-5.15.96-7.38,1.36-2.49.43-10.17,2.06-15.09,3.42-4.92,1.33-14.79,1.93-17.25,2.23-.86.1-1.5.43-1.86.86-2.09.17-3.82.4-4.62.63-1.66.6-5.08,2.82-8.37,2.96-2.99.17-11.37,6.88-11.37,8.67,0,.3.13,1.53.13,2.43,0,.73-.13,1.33-.43,1.33-.6,0-1.36-1.79-2.26-1.79-2.82,0-6.58,7.61-6.58,12.26,0,.6,1.5,1.79,1.5,2.82,0,1.5-1.03,2.09-1.03,3.29,0,4.95,2.99,11.53,4.02,11.53.76,0,5.25.73,7.18.73.3,0,.9,0,.9.47,0,.73-3.42,2.23-3.72,4.02,0,.9,1.2,1.66,2.99,2.99,2.53,1.79,1.33,2.99,5.82,5.68,3.76,2.26,10.04,8.67,12.56,8.67s1.2,1.06,3.46,3.59c2.13,2.46,4.98,4.05,5.22,4.05,0,0,2.86,2.53,5.08,4.32,3.76,2.99,5.55,6.58,8.54,6.58,2.39,0,2.99-2.53,5.08-2.53.3,0,.43.3.43.6,0,.9-4.32,8.08-4.32,8.81,0,2.69,1.79,3.16,1.79,5.25,0,3.29-2.09,3.59-3.16,5.68-.6,1.33-1.5,4.32-2.09,5.38-2.53,3.89-6.88,6.28-10.6,6.28-6.15,0-8.08-2.26-12.13-3.46-.13,0-1.79,1.5-2.69,1.5-2.53,0-1.79-3.89-3.72-5.52-.76-.6-3.59-.47-4.05-1.36-.13-.3-.3-.6-.3-.9,0-.86.8-1.43.9-1.86-.27,0-4.09-14.29-5.98-14.29-3.59,0-10.9,7.64-10.9,9.44,0,3.59,2.82,4.02,2.82,5.68,0,3.12,2.56,4.49,7.34,8.51,2.53,2.39,12.99,8.54,22.43,8.54.9,0,5.22.73,7.61.73,1.96,0,5.98-1.33,7.34-1.33h2.23c2.09,0,6.45-4.49,10.47-4.49,2.99,0,4.95-3.46,8.24-6.45.9-.43,1.93-1.63,1.93-2.09,0-.43-2.23-.6-5.22-.6-.3,0-.6-.13-.6-.3,0-1.5,6.88-1.63,9.7-4.19,1.36-1.2,3.59-5.38,3.59-7.01,0-1.06-2.09-1.79-2.09-2.39,0-1.36,3.76-4.95,3.76-6.45,0-5.38-1.96-9.57-3.76-12.56-.6-1.03-1.79-1.2-2.82-1.2h-.9c-.17,0-.17-.13-.17-.3,0-.6,1.36-1.63,1.36-1.63,0-.17-1.36-1.36-2.39-1.36-1.79,0-5.85.76-7.05.76,0-.3,2.39-2.56,2.56-2.56,1.2-.9,1.2-2.82,1.2-2.99,0-.6-.3-1.2-1.06-2.09-1.2-1.2-3.29-2.09-4.19-3.29-1.2-1.63-1.93-1.93-2.82-1.93-.6,0-1.2.13-2.09.13,0,0-1.79-3.12-3.29-4.62s-3.76-2.09-6.15-3.89c-.9-.6-1.5-.76-1.93-.76-.47,0-.76.17-.9.17-.17,0-.17-.17-.17-.47,0-1.2-1.33-1.93-3.59-1.93-1.79,0-1.2.13-3.89.13-.3,0-2.82.3-4.19.3-.73,0-1.33-.73-1.33-.9,0-.73,4.92-1.79,4.92-4.19,0-1.5-3.42-3.59-8.81-8.67-2.09-1.93-3.89-5.52-3.89-5.52,0-1.5-.6-2.86-1.36-2.86-3.12,0-3.59,3.76-6.71,3.76-.3,0-.47,0-.47-.3,0-.6,1.06-3.59,2.09-3.89,1.66-.6,3.16-4.49,4.65-5.08,1.2-.47.73-1.66,1.5-3.76,2.09-4.49,9.7-8.04,14.49-8.04,1.36,0,3.46.73,7.05.73.73,0,2.23-1.33,2.99-1.33,2.69,0,1.33,2.96,7.18,6.85.73.63,2.53.47,2.99,1.36.3.43.43,1.33.43,2.23,0,2.56,0,2.99.17,3.16,1.2,2.09,1.33,3.72,1.33,7.91,0,1.66.6,2.99,2.56,2.99,3.72,0,9.87-5.68,9.87-7.31,0-3.59-2.09-3.29-2.56-6.75-.6-4.09-2.56-5.95-5.78-8.67.4-.2.66-.33.8-.43.83-.6,7.94-1.56,10.83-2.92,2.92-1.43,9.6-2.19,12.1-2.19s12.06-.3,14.59-.63c2.49-.3,18.34,0,24.16.47,5.88.47,18.78,1.23,20.87,1.86s9.57-.13,10.83.93c1.23,1.13,7.91,2.19,10,2.36,2.09.13,17.91,2.03,20.84,2.96,2.96.93,14.19,2.36,16.68,2.79,2.49.5,14.62,3.62,18.34,4.05,3.76.5,15.02,2.53,20.44,2.99,1.63.13,3.12.1,4.49,0,1,1.83,2.16,4.49,2.16,8.57,0,.9-.17,1.93-.17,2.69,0,1.93.3,2.82.3,5.52,0,.76.76,2.26.76,3.89,0,1.36-1.2,1.66-1.2,7.78,0,1.2-.17,2.09-.17,2.86,0,1.03.3,4.02,2.09,4.02.6,0,1.2-.3,1.66-.3.3,0,.73.17.73.47,0,1.5-1.63,1.63-2.99,3.12-1.33,1.66-1.03,4.95-1.2,7.94,0,2.82.3,3.89.3,5.68,0,1.5-.3,3.72-.3,4.49v3.72c0,.6.9,2.86.9,5.08,0,.76-.3.9-.3,2.56,0,5.68,5.85,4.49,5.85,5.98,0,0-1.06,1.63-1.36,1.63-.9,0-2.23-1.03-2.99-1.03-.3,0-2.99,2.09-2.99,4.62,0,2.69-2.09,6.58-2.09,8.24,0,1.33,1.06,2.09,1.96,2.09,5.38,0,9.87-1.36,11.37-1.36,1.63,0,8.21,1.06,10.47,1.06,1.93,0,3.59-.17,3.59-1.2,0-3.29-2.56-4.65-3.16-13.63,0-.43-.3-3.29-1.03-3.29-2.09,0-2.99.17-3.89.17,0-1.2,2.69-2.09,2.82-2.26,1.36-.73,1.36-2.09,1.36-3.29s0-1.93-.3-2.69c0-.73.6-1.93.6-2.69,0-.13-.6-1.33-.6-1.93,0-.47.3-3.46.3-3.59,0-.3-.17-.47-.3-.47-.17,0-.47.17-.6.17-1.06,0-1.36-.3-1.36-.76,0-1.2,2.56-1.2,2.56-7.48,0-1.5,3.42-1.5,4.92-1.5,3.76,0,6.15.6,8.54,4.49.9,1.66,4.32.6,4.32,1.66,0,.3-.13.6-.6,1.2-.13.3-.3,1.33-.3,1.63,0,1.66,2.39,4.05,2.69,5.38.47,1.36,3.16,1.06,3.16,2.56,0,.13-1.06,1.93-1.06,2.39,0,1.93,2.99,5.08,2.99,5.52,0,1.36,1.5,3.89,1.5,4.49.47.47,7.74,12.69,8.94,15.22.17.47,2.69.3,2.99.76.17.3.3.6.3,1.03,0,.76-.13,1.5-.13,2.09,0,.47,0,.9.43,1.2,3.89,3.46,6.75,4.79,14.82,5.08,2.23.17,4.62.3,6.58.3,1.2,0,3.59-.13,5.08-.3,2.23-.13,2.69-.6,2.69-2.23,0-1.5-1.79-2.09-2.56-2.09-4.02,0-5.98-2.56-7.31-3.29-3.46-1.66-2.26-3.59-3.89-4.95-2.26-2.09-7.74-13.86-8.51-15.52,0-.3-3.72-.3-3.72-1.03,0-1.36,1.93-1.96,1.93-2.86,0-.13-.3-3.29-1.5-4.49-.13-.6-.73-1.5-.9-1.5-1.33.17-1.79.76-2.39,1.2l-.9-.6c0-2.23,1.2-3.29,1.2-5.22,0-.9-1.79-4.35-2.23-4.35-.13,0-1.66-1.79-1.66-1.93,0-3.29-13.59-8.37-13.59-8.37,0,0,.13-.17.43-.17,3.59,0,8.24-1.03,10.63-2.09.6-.3,1.93-.13,2.53-.6.3-.3,1.36-2.09,1.79-2.39.76-.43,2.99-.43,3.89-1.03,3.59-2.69,4.49-5.38,7.18-10.34,0-.3,0-1.03-1.03-1.03-1.5,0-.17-.17-1.5-.17-.3,0-1.2-.13-1.2-.6,0-1.33,2.82-1.5,3.29-1.79.9-.9,1.03-1.03,1.03-1.63,0-.9-1.03-1.5-1.03-2.09,0-.9,1.79-.9,1.79-4.05,0-3.42-.76-5.08-2.86-5.08-.9,0-1.93.9-2.82.9,0,0-.17,0-.3-1.03,1.03-1.06,2.82-3.46,2.82-3.89,0-.47-.43-.9-.9-.9-1.5.6-2.82,1.5-3.59,1.5-.43,0-.73-.3-.73-1.2s1.5-2.26,1.5-2.56c-3.16-5.95-12.26-7.74-19.14-7.74-.8-.07-12.26-.63-16.92-.63-.53,0-1.13.07-1.83.17-.17-.07-.33-.13-.5-.17-1.23-.17-20.84-2.16-23.33-3.12-2.53-.93-14.19-.93-18.78-1.86-4.55-.93-11.23-2.03-13.73-1.73-2.53.3-17.95-2.82-20.44-3.26-2.53-.5-21.3-2.06-22.96-2.49-1.66-.5-9.97-.93-12.06-.63-2.09.3-12.1-1.1-18.34-2.06-6.25-.93-19.61-1.53-23.76-1.69-4.19-.17-7.94-.6-10.04.76-2.09,1.43-10.4.5-12.93.33-2.49-.13-17.91,1.86-21.24,2.79-3.36.93-15.02,2.19-15.85,3.12-.3.37-1.1.66-2.13,1-2.23-1.6-6.25-3.62-12.36-4.72.2-.03.37-.1.53-.17,2.36-.86,10.6-3.22,20.54-3.56.6,0,1.23-.1,1.79-.3l13.59-2.73s8.87-2.39,9.84-2.99c1-.6,9.37-1.5,12.79-2.82,3.46-1.36,11.33-2.09,14.29-2.09s14.26-.3,17.21-.6c2.96-.3,21.67,0,28.55.43,6.91.47,22.17,1.2,24.63,1.79s11.3-.13,12.79.9c1.46,1.06,9.34,2.09,11.8,2.26,2.46.13,21.17,1.93,24.63,2.82,3.46.9,16.72,2.26,19.67,2.69,2.96.47,17.25,3.46,21.67,3.89,4.42.47,17.71,2.39,24.13,2.86,6.38.43,11.33-1.2,13.76.43,2.46,1.66,0,1.5,4.95,2.26,4.92.73,14.26,1.79,20.67,2.39,6.38.6,8.84,1.63,14.76,1.79,5.92.13,14.76,0,14.76,0l16.25-.6c.5-.17,10.34-.9,18.21-1.96,7.88-1.03,10.34-2.53,14.26-3.29,3.95-.73,11.33-2.39,13.33-3.42,1.96-1.06,8.84-3.46,7.88-4.65-.1-.1-.13-.2-.13-.3,3.12-.47,7.05-.5,7.61-.63.6-.13,1.79-1.5,2.23-1.79.3-.43,2.56.76,3.59.76.2,0,1.03-.07,2.19-.2.86-.1,1.89-.23,3.02-.37,3.52-.47,7.74-1.1,8.71-1.53,1.5-.9,9.4-1.96,10.6-2.56,1.2-.73,16.02,0,17.21-.3.9-.13,7.78-2.23,10,0,.6.47,7.18,0,8.37,1.2,1.2,1.06,11.23,1.66,13.16,2.26,2.26.73,7.31,2.69,7.64,3.42.3.47,4.32,2.09,4.92,1.96.9-.17,3.59,2.53,4.49,3.72.9,1.06,1.93,1.5,2.99,1.06,1.03-.6-3.72-4.95-4.79-5.68ZM291.9,124.69c-.47,0-.9-.6-.9-1.36,0-.43.73-1.63,1.5-1.63.43,0,.9.6.9,1.33,0,.6-.76,1.66-1.5,1.66ZM328.82,97.78c1.06-.9,1.96-.9,2.39-.9.3,0,.47.13.47.43,0,1.06-.9,2.99-2.86,2.99-.73,0-1.2-.13-1.2-.6,0-.3.17-1.33,1.2-1.93ZM309.68,62.18c.9,0,1.66,1.2,1.66,1.79,0,.43-.9,1.03-1.36,1.03-.73,0-1.5-.43-1.5-1.2,0-.3.6-1.63,1.2-1.63ZM596.45,54.54c.47,0,.9.3.9.76,0,.43-.43.73-1.03.73-.47,0-.76-.13-.9-.43,0-.6.43-1.06,1.03-1.06ZM548.29,58.43c.76-.6,1.2-1.93,1.79-2.39.9-.73,1.2-1.33,1.2-1.79,0-.73-.73-1.2-.73-1.79,0-1.93,1.2-1.93,1.2-6.71,0-3.16,7.31-3.46,11.2-3.46,7.78,0,10.17.47,14.66,4.95,3.46,3.42,3.76,7.18,3.76,8.97,0,.3,0,3.42,2.69,3.42-1.66,1.66-2.86,2.39-3.29,3.46-.76,1.63-.3,2.99-1.06,4.62-2.53,6.28-6.58,11.53-13.46,11.53-1.33.3-2.39,1.2-3.89,1.2-1.03,0-2.39-.17-2.69-.17-1.5.3-3.12.3-4.19.3s-2.23,0-3.42-.6c-.17-.13-.6-.6-.6-.73,0-2.86.13-5.08.13-8.37v-2.26c0-1.5-.13-2.82-1.2-2.82-.9,0-2.09-1.2-2.99-1.2-.3,0-.6,0-.6-.3,0-1.5,4.95-.9,4.95-3.16,0-.43,0-1.5-.6-1.5-1.79,0-2.99,1.2-4.65,1.2-.43,0-.73-.13-.73-.3,0-.9.73-.9,2.53-2.09ZM547.86,73.68c.73,0,1.79.47,1.79,1.5s-1.06,1.5-1.79,1.5-1.2,0-1.96-1.03c-.3-.17-.3-.47-.3-.76,0-.43,1.5-1.2,2.26-1.2ZM534.23,53.64c.3-.13.76-.3,1.06-.3.6,0,.9.3.9.9s-.6,1.5-1.66,1.5c-.73,0-1.2-.3-1.2-.9,0-.3.17-.73.9-1.2ZM643.24,27.26c.23.1.47.23.66.33.17.37.37.76.63,1.13-.33-.37-.76-.86-1.3-1.46Z"/>
      <path class="cls-1" d="M387.74,133.07h-3.74c-.75,0-1.05-.45-1.05-1.05s.3-1.2.6-1.94c1.35-2.24,3.68-6.28,3.68-8.97,0-.75.6-2.69.6-4.04,0-1.79,1.79-1.79,1.79-3.14-.15-.15-1.94-1.35-1.94-2.54,0-2.84,5.83-4.19,5.83-6.58,0-.15-.15-.3-.45-.3-.75,0-.3.15-1.49.15-.45,0-.6-.15-.9-.15-.75,0-1.5.9-2.09.9-.9,0-1.35-2.24-1.35-2.99,0-.3.75-9.72.75-12.41,0-.45,1.94-.9,1.94-2.24,0-.75-2.69-2.09-2.69-8.22,0-1.65.3-2.24.75-2.24.6,0,1.5,1.05,2.24,1.05.45,0,.6-.75.6-.9,0-1.05-1.65-1.35-1.65-2.39-.9-2.39-1.64-3.29-1.64-6.88,0-5.08,3.29-5.38,3.29-7.33,0-.3-2.99-1.2-2.99-2.84,0-1.94,0-2.69.3-4.34,0-.15.9-.45.9-.6,0-.75-1.19-1.05-1.19-3.14,0-4.34-1.2-5.08-7.33-5.08-2.24,0-5.68.3-6.58.15-1.35-.15-1.35-1.5-2.39-1.5-.9,0-.75,2.84-2.09,3.29-2.54,1.05-6.73,5.08-8.23,5.08-1.65,0-1.79-1.2-1.79-2.39,0-1.05,1.65-5.83,1.65-5.83,0-2.69-.3-4.34-.3-5.53,0-.9.75-1.5,1.49-1.5,1.79,0,5.98,1.65,8.37,1.65,0,0,2.69-.75,5.83-.75.45,0,.6,0,.6.15,0,.3-.3.75-.3.9,0,0,.9.6,1.2.6,2.39-.45,5.23-1.94,9.87-1.94.3,0,8.82.45,11.37,1.05,1.19,0,5.83-.45,7.93-.6,1.34,0,3.74.15,5.83.15,2.39,0,6.28-.45,11.81-.45,1.65.15,3.59.3,5.83.3,2.69,0,3.44-1.2,5.83-1.2,1.35,0,1.35.75,1.35,1.35,0,.75-.75,3.74-.75,5.53,0,.3,1.65,5.98,1.65,6.28,0,1.2-1.19,1.79-1.79,1.79-1.94,0-2.69-2.39-8.52-5.08-1.05-.45-7.48-.9-8.07-1.49-1.79-1.79-1.94-1.79-1.94-1.79-.3,0-.6.15-.9.45-2.24,2.24-5.23,1.65-6.73,2.24-.3.15-1.65,5.53-1.65,5.83,0,.45.15.6.15,1.05s-.6,1.79-1.2,1.79c-.3,0-.6-.3-1.05-.3-.3,0-1.05.3-1.05.9,0,1.65,3.59-1.05,3.59,6.43,0,1.2-.15,2.24-.3,2.99-.75,2.39-5.38,4.49-5.38,6.28,0,.15.15.3.6.3,1.94,0,1.5-.45,2.4-.45.75,0,1.34.75,1.34,1.2,0,1.35-2.54,1.35-2.54,2.69.45.75,3.59,1.5,3.59,7.33,0,4.49,0,8.37-4.04,10.92,2.69,1.2,3.59,2.09,3.59,6.73,0,3.44-.45,4.63-.45,5.53s.75,1.79.75,2.39c0,1.2-.45,2.39-.45,5.53,0,6.28-4.19,5.68-4.79,6.73,0,.15.45,1.05.9,1.05.75,0,.6-.3,2.25-.3,1.05.3,2.24-.15,2.24,1.05,0,5.23,3.89,7.78,3.89,9.57,0,1.65-1.5,1.79-3.14,1.79h-2.99c-2.69-.15-6.43-1.2-8.38-1.2-1.49,0-7.27,1.5-10.86,1.5ZM389.79,101.96c0,.45.3.75.75.75.75,0,1.35-1.05,1.35-1.35s-.3-.6-.6-.6c-.15,0-.3,0-.45.15-.75.3-1.05.6-1.05,1.05ZM404.89,62.18c0,.6.6,1.05,1.34,1.05.6,0,1.2-.3,1.2-1.05,0-.6-.6-.75-1.35-.75-.45,0-.75.15-1.05.3-.15.15-.15.3-.15.45Z"/>
      <path class="cls-1" d="M440.03,93.88c-1.65,0-6.13.75-7.78,1.94-1.34.75-2.84,1.94-3.14,1.94-.6,0-1.05-.45-1.05-1.5,0-.9,1.35-3.44,2.39-4.64,1.35-1.49,4.19-.9,4.49-2.39,0-.3-1.65-.6-1.65-1.5,0-1.2,3.89-4.93,9.12-4.93,1.49,0,3.89-.3,6.43-.3,0-1.35.75-3.59,1.35-4.64.3-.75,1.64-1.35,1.64-2.24,0-2.39,1.35-5.98,2.25-8.37.3-.9,2.84-1.05,3.59-2.09,0-.15.15-.3.15-.45,0-1.05-1.05-2.09-1.05-3.29,0-.3.15-.6.3-.9,1.05-2.09,1.35-5.08,1.94-6.73,0,0,2.99-8.08,4.79-11.96.75-3.59,3.59-7.93,6.13-7.93.75,0,2.54,1.05,3.89,2.84,1.79,2.24,1.79,2.54,3.44,5.98.15.3,1.34,1.35,1.34,1.5,0,1.35-2.54,1.49-2.54,2.69.15.75,2.99-.45,4.64,2.99,1.05,1.94.75,1.49,1.49,3.14.9,1.35,1.94,2.69,2.4,4.04,0,.45-2.54.9-2.54,1.5,0,.3,1.2,1.2,1.35,1.49.15.15.3.3.6.3h.9c.75,0,1.5.15,1.94,1.35.75,1.65,1.65,3.74,2.84,5.53.6.9.75,1.79.75,2.69s-.15,1.64-.15,2.24c0,1.65-.9,1.79-.9,3.59,0,.45.6,1.35.9,1.35h2.09c.6,0,1.05.3,1.65,1.35.3.3,1.64,2.84,2.54,5.38,1.65,4.49,2.84,7.03,2.84,7.33,0,.15-.9,2.54.45,2.54,2.39,0,4.49-1.79,6.13-1.79.6,0,1.19.45,1.19,1.05-.15,1.65-2.99,4.49-3.74,5.08-.9.6-1.34.9-1.64,1.05-.3.15-.45.3-.45.45,0,.3,1.5.45,1.5.75,0,1.65,1.35,2.54,1.35,4.04,0,1.05-2.09,3.74-2.09,4.64,0,.3.75.45.9.45,1.5,0,2.24-.45,3.59-.45.75,0,1.05,1.35,1.05,2.09s-2.4,2.24-2.4,3.44c0,.15,1.05,1.35,1.35,1.35,1.35,0,1.65-.45,3.14-.45.75,0,.9,1.35,1.65,2.84,1.34,2.84,2.39,1.94,3.44,5.83.45,1.5,2.69,3.29,3.89,4.04.6.45,1.2,1.2,1.2,1.94,0,1.35-3.14,1.35-4.04,1.35-1.35,0-4.94-1.05-6.58-1.2h-.75c-1.05,0-2.54.15-3.89.15s-2.39-.15-2.69-.45c-2.09,0-10.02,1.5-13.01,1.5-.75,0-1.2-.75-1.2-1.65.3-.9.15-1.5.45-3.44,0-1.35-.6-2.99-.6-4.49,0-1.35,1.79-2.84,1.79-3.74,0-.15-.15-.3-.45-.45-3.29-1.05-3.29-1.65-3.29-2.24,0-.45-1.79-4.19-1.79-6.13,0,0-1.19-1.35-1.79-3.29-.15-.9-1.19-2.84-1.65-2.84-.45-.15-4.78-1.05-5.68-1.35-2.84-.45-3.59-3.29-5.23-3.29-.45,0-.6.9-.6,1.64,0,.45-.6.75-.75.75-2.69,0-4.19-1.49-7.63-1.49-2.99,0-5.38-2.24-10.32-3.59-1.65,3.44-1.65,5.38-2.84,8.22-.45.75-4.04.9-4.04,1.2,0,1.79,2.69,2.09,2.69,2.69,0,.3-1.34,2.24-1.94,4.04-1.19,3.29-.45,3.59-1.19,5.83-.15.75-3.14.45-3.14,1.94,0,.6,2.84.9,2.84,2.54,0,.45-.45,2.84-.45,3.74,0,1.5.15,2.54.15,4.64,0,.3-.6.75-1.19.75-1.65,0-5.38-.75-7.03-.75-2.39,0-4.63.75-5.83.75-.3,0-.6-.3-.6-.75,0-.3.15-.6.3-.9l3.14-5.09c.3-.6,2.99-5.68,3.74-8.37.15-.75,1.05-.6,2.09-2.69.15-.6.3-3.59.75-4.34,1.79-4.79,2.84-6.88,2.84-7.93.45-1.65,2.39-4.34,2.84-6.13,0-.9-.15-1.35-3.29-1.35ZM464.41,88.65c.15.15,0,.3.15.3.3,0,.75-.15,1.35-.15.75,0,1.5.15,2.39.3,3.59,1.2,4.04,2.54,4.94,2.54.45,0,3.89,1.5,4.34,1.5-.9-2.09-2.99-6.13-2.99-7.18,0-1.65-2.69-5.09-3.14-7.48.15-1.05.75-5.09.75-5.83-.75,0-1.5.9-2.84.9-.45,0-1.05-.15-1.35-.6-.45-.6-.6-1.05-.6-1.35s.6-.45.6-.9c0-.3-.15-.6-.45-1.2-1.2-2.09-1.35-1.94-2.4-4.34-.75-2.09-2.09-3.44-2.09-3.44-.15,0-1.19,1.94-1.79,4.79-1.34,5.83-3.59,8.08-3.59,10.32s-1.05,1.94-1.05,4.19-.15,1.05-1.05,3.59c.3,0,3.74.9,8.82,4.04ZM477.42,56.05c0,.45.3.75.75.75.15,0,1.05.3,1.2.3.9-.3,2.39-1.79,2.39-1.94-.3-.3-1.79-1.2-2.69-1.2-.3,0-.45.15-.75.3-.45.3-.9,1.2-.9,1.79ZM491.32,125.29c0,.75.6.9,1.2.9,1.34,0,1.94-.45,2.09-1.5,0-1.05-.15-1.94-.9-1.94-.45,0-.9,0-1.05.15-1.35.6-1.05,1.65-1.35,2.39Z"/>
      <path class="cls-1" d="M637.88,131.27h-3.74c-.75,0-1.05-.45-1.05-1.05s.3-1.2.6-1.94c1.34-2.24,2.09-4.49,2.09-7.18,0-.75.6-2.69.6-4.04,0-1.79,1.79-1.79,1.79-3.14-.15-.15-1.94-1.35-1.94-2.54,0-2.84,5.83-4.19,5.83-6.58,0-.15-.15-.3-.45-.3-.75,0-.3.15-1.5.15-.45,0-.6-.15-.9-.15-.75,0-1.5.9-2.09.9-.9,0-1.35-2.24-1.35-2.99,0-.3.75-9.72.75-12.41,0-.45,1.94-.9,1.94-2.24,0-.75-2.69-2.09-2.69-8.22,0-1.65.3-2.24.75-2.24.6,0,1.5,1.05,2.24,1.05.45,0,.6-.75.6-.9,0-1.05-1.65-1.35-1.65-2.39-.9-2.39-1.65-3.29-1.65-6.88,0-5.08,3.29-5.38,3.29-7.33,0-.3-2.99-1.2-2.99-2.84,0-1.94,0-2.69.3-4.34,0-.15.9-.45.9-.6,0-.75-1.2-1.05-1.2-3.14,0-4.34-1.19-5.08-7.33-5.08-2.24,0-5.68.3-6.58.15-1.35-.15-1.35-1.5-2.39-1.5-.9,0-.75,2.84-2.09,3.29-2.54,1.05-6.73,5.08-8.23,5.08-1.65,0-1.79-1.2-1.79-2.39,0-1.05,1.65-5.83,1.65-5.83,0-2.69-.3-4.34-.3-5.53,0-.9.75-1.5,1.5-1.5,1.79,0,5.98,1.65,8.37,1.65,0,0,2.69-.75,5.83-.75.45,0,.6,0,.6.15,0,.3-.3.75-.3.9,0,0,.9.6,1.2.6,2.39-.45,5.23-1.94,9.87-1.94.3,0,8.82.45,11.37,1.05,1.2,0,5.83-.45,7.93-.6,1.35,0,3.74.15,5.83.15,2.4,0,6.28-.45,11.81-.45,1.65.15,3.59.3,5.84.3,2.69,0,3.44-1.2,5.83-1.2,1.34,0,1.34.75,1.34,1.35,0,.75-.75,3.74-.75,5.53,0,.3,1.65,5.98,1.65,6.28,0,1.2-1.2,1.79-1.79,1.79-1.94,0-2.69-2.39-8.53-5.08-1.05-.45-7.48-.9-8.07-1.49-1.79-1.79-1.94-1.79-1.94-1.79-.3,0-.6.15-.9.45-2.25,2.24-5.23,1.65-6.73,2.24-.3.15-1.65,5.53-1.65,5.83,0,.45.15.6.15,1.05s-.6,1.79-1.19,1.79c-.3,0-.6-.3-1.05-.3-.3,0-1.05.3-1.05.9,0,1.65,3.59-1.05,3.59,6.43,0,1.2-.15,2.24-.3,2.99-.75,2.39-5.38,4.49-5.38,6.28,0,.15.15.3.6.3,1.94,0,1.5-.45,2.39-.45.75,0,1.35.75,1.35,1.2,0,1.35-2.54,1.35-2.54,2.69.45.75,3.59,1.5,3.59,7.33,0,4.49,0,8.37-4.04,10.92,2.69,1.2,3.59,2.09,3.59,6.73,0,3.44-.45,4.63-.45,5.53s.75,1.79.75,2.39c0,1.2-.45,2.39-.45,5.53,0,6.28-4.19,5.68-4.78,6.73,0,.15.45,1.05.9,1.05.75,0,.6-.3,2.24-.3,1.05.3,2.24-.15,2.24,1.05,0,5.23,3.89,6.58,3.89,8.37,0,1.65-1.49,1.79-3.14,1.79h-2.99c-2.69-.15-6.43-1.2-8.37-1.2-1.5,0-5.68.9-9.27.9ZM638.33,101.96c0,.45.3.75.75.75.75,0,1.34-1.05,1.34-1.35s-.3-.6-.6-.6c-.15,0-.3,0-.45.15-.75.3-1.05.6-1.05,1.05ZM653.43,62.18c0,.6.6,1.05,1.35,1.05.6,0,1.19-.3,1.19-1.05,0-.6-.6-.75-1.34-.75-.45,0-.75.15-1.05.3-.15.15-.15.3-.15.45Z"/>
      <path class="cls-1" d="M697.7,73.25c0-.75.15-1.65.15-2.84,0-6.13,1.19-6.43,1.19-7.78,0-1.65-.75-3.14-.75-3.89,0-2.69-.3-3.59-.3-5.53,0-.75.15-1.79.15-2.69,0-7.03-3.44-9.87-3.44-11.51,0-1.49,1.65-1.79,2.99-1.79,2.39,0,4.34.75,6.43.75,1.35,0,2.84.9,4.34.9,1.65,0,4.49-.9,6.43-1.05,2.69-.15,6.28-.45,12.71-.45,3.89,0,5.09-.3,7.03-.3,1.2,0,3.59.45,14.81.45,2.09,0,5.38.15,5.38,1.79,0,.75-1.65,1.64-2.4,3.44-.75,1.65-1.19,7.33-2.09,7.33-2.24-.15-5.53-4.49-8.97-4.49-3.74,0-5.53-1.2-7.03-1.2-5.09,0-5.83-.75-7.33-.75-6.58,0-9.12,2.39-9.12,3.29s1.94,1.2,1.94,2.54c0,4.34-.45,4.94-.45,5.09-.15.9,0,2.69-.6,3.59-.6,1.05-4.34,1.35-4.34,2.09,0,.9,1.05,1.64,2.69,1.64.15,0,.15.3.45.3.9,0,1.79,1.05,1.79,2.84,0,1.49-.15,2.54-.3,3.59,0,.75.15,1.65.15,2.39,0,.6-.15,2.39-.15,4.04l3.89-1.35c1.35-.3,2.39-.3,3.14-.3.15,0,3.14,1.5,3.14,1.35.6-1.2,1.65-1.79,3.89-2.09,2.24-.3,3.29-1.05,10.77-1.05,1.19,0,1.65.75,1.65,1.35,0,.15-.15.45-.15.6-.3.75-2.4,4.04-2.69,4.79-.45.9-.75,2.69-1.19,3.29-.45.75-1.5,1.79-3.44,1.79-1.5,0-1.65-1.05-3.74-1.05s-2.99-.75-4.94-.75c-1.19,0-1.94-.3-3.29-.3-1.95,0-5.23.15-6.73.6,0,1.5-.15,2.69-.15,4.49,0,1.65-.15,2.99-.3,2.99-.45,0-.9,0-.9.45,0,1.64,1.79,2.84,1.79,4.79,0,.6-.45,1.35-.45,2.84,0,.75.3,1.05.3,1.49,0,.3-.15.75-.6.75-2.84,1.79-5.38,4.49-5.38,5.23,0,.3.15.45.9.45,1.05,0,2.4-.9,3.44-.9.75,0,1.79,1.05,1.79,1.35,0,.9-7.93,3.59-7.93,4.64,0,.45.75.6,1.5.6,1.05,0,2.84-.6,4.63-.6,1.5,0,2.24.6,2.24,1.35,0,1.49-.75,3.89-.75,6.28,0,1.05.6,2.69.9,3.44.9,2.39,3.74,2.69,6.58,2.69,5.83,0,7.78.75,8.37.75,1.2,0,.9-.75,3.14-.75,3.59,0,6.28-2.69,8.67-2.69,1.64,0,4.63-2.54,6.58-3.44.3-.15.6-.15.75-.15.75,0,.9.6.9,1.2,0,.9-1.65,3.74-2.24,7.03-.15.6-.6,3.14-.6,3.59,0,.75.15,1.35.15,1.79,0,.3,0,.6-.15.9-.15.15-.3.3-.6.3-1.2,0-2.54-1.19-8.22-1.19-1.35,0-2.4-1.35-2.54-1.35-.45,0-.6,1.35-2.09,1.35h-9.72c-2.54,0-4.34.15-7.78.15-5.08,0-4.78-.9-7.03-.9-1.64,0-4.34-.9-6.13-1.05-1.05.15-5.83,1.79-8.97,1.79h-2.54c-.9,0-1.94-.75-1.94-2.09,0-1.65,2.09-5.53,2.09-8.23,0-2.54,2.69-4.63,2.99-4.63.75,0,2.09,1.05,2.99,1.05.3,0,1.35-1.65,1.35-1.65,0-1.5-5.83-.3-5.83-5.98,0-1.65.3-1.79.3-2.54,0-2.24-.9-4.49-.9-5.08v-3.74c0-.75.3-2.99.3-4.49,0-1.79.15-6.43.15-9.27-2.99.75-3.14,1.35-4.04,1.35-1.2,0-2.09-.45-2.09-1.35,0-2.24,5.09-5.38,7.33-6.58-1.65-1.2-1.94-4.04-1.94-5.09ZM700.69,69.81c0,.6.45.9,1.2.9,1.05,0,1.65-.9,1.65-1.5s-.3-.9-.9-.9c-.3,0-.75.15-1.05.3-.75.45-.9.9-.9,1.2ZM714.89,73.55c0,.15,0,.3.75.3,1.2,0,1.79-.15,1.79-1.05,0-.6-.45-1.2-.9-1.2-.15,0-.3,0-.45.15-.45.45-1.19,1.35-1.19,1.79Z"/>
      <path class="cls-1" d="M765.14,131.57c-.9,0-1.94-.75-1.94-2.09,0-1.65,2.09-5.53,2.09-8.23,0-2.54,2.69-4.63,2.99-4.63.75,0,2.09,1.05,2.99,1.05.3,0,1.35-1.65,1.35-1.65,0-1.5-5.83-.3-5.83-5.98,0-1.65.3-1.79.3-2.54,0-2.24-.9-4.49-.9-5.08v-3.74c0-.75.3-2.99.3-4.49,0-1.79-.3-2.84-.3-5.68.15-2.99-.15-6.28,1.19-7.93,1.35-1.5,2.99-1.65,2.99-3.14,0-.3-.45-.45-.75-.45-.45,0-1.05.3-1.65.3-1.79,0-2.09-2.99-2.09-4.04,0-.75.15-1.65.15-2.84,0-6.13,1.19-6.43,1.19-7.78,0-1.65-.75-3.14-.75-3.89,0-2.69-.3-3.59-.3-5.53,0-.75.15-1.79.15-2.69,0-7.03-3.44-9.87-3.44-11.51,0-1.49,1.65-1.79,2.99-1.79,2.39,0,7.93,1.05,10.02,1.05,1.35,0,6.88-1.2,8.37-1.2.3,0,1.2.15,1.35.3,0-.15,5.38-1.65,8.07-1.65,4.94,0,17.64.6,16.9.6,6.88,0,16,1.79,19.14,7.78,0,.3-1.5,1.64-1.5,2.54s.3,1.2.75,1.2c.75,0,2.09-.9,3.59-1.5.45,0,.9.45.9.9s-1.79,2.84-2.84,3.89c.15,1.05.3,1.05.3,1.05.9,0,1.94-.9,2.84-.9,2.09,0,2.84,1.65,2.84,5.09,0,3.14-1.79,3.14-1.79,4.04,0,.6,1.05,1.2,1.05,2.09,0,.6-.15.75-1.05,1.65-.45.3-3.29.45-3.29,1.79,0,.45.9.6,1.2.6,1.35,0,0,.15,1.5.15,1.05,0,1.05.75,1.05,1.05-2.69,4.94-3.59,7.63-7.18,10.32-.9.6-3.14.6-3.89,1.05-.45.3-1.49,2.09-1.79,2.39-.6.45-1.94.3-2.54.6-2.39,1.05-7.03,2.09-10.62,2.09-.3,0-.45.15-.45.15,0,0,13.61,5.08,13.61,8.37,0,.15,1.65,2.09,1.65,1.94.45,0,2.24,3.44,2.24,4.34,0,1.94-1.19,2.99-1.19,5.23l.9.6c.6-.45,1.05-1.05,2.4-1.2.15,0,.75.9.9,1.5,1.2,1.2,1.5,4.34,1.5,4.49,0,.9-1.94,1.5-1.94,2.84,0,.75,3.74.75,3.74,1.05.75,1.65,5.89,14.04,8.13,16.13,1.65,1.35.45,3.29,3.89,4.93,1.35.75,3.29,3.29,7.33,3.29.75,0,2.54.6,2.54,2.09,0,1.65-.45,2.09-2.69,2.24-1.5.15-3.89.3-5.09.3-1.94,0-4.34-.15-6.58-.3-8.08-.3-10.92-1.65-14.81-5.09-.45-.3-.45-.75-.45-1.2,0-.6.15-1.35.15-2.09,0-.45-.15-.75-.3-1.05-.3-.45-2.84-.3-2.99-.75-1.2-2.54-8.13-15.38-8.58-15.83,0-.6-1.49-3.14-1.49-4.49,0-.45-2.99-3.59-2.99-5.53,0-.45,1.05-2.24,1.05-2.39,0-1.49-2.69-1.2-3.14-2.54-.3-1.35-2.69-3.74-2.69-5.38,0-.3.15-1.35.3-1.65.45-.6.6-.9.6-1.2,0-1.05-3.44,0-4.34-1.65-2.4-3.89-4.79-4.49-8.53-4.49-1.5,0-4.93,0-4.93,1.5,0,6.28-2.54,6.28-2.54,7.48,0,.45.3.75,1.35.75.15,0,.45-.15.6-.15s.3.15.3.45c0,.15-.3,3.14-.3,3.59,0,.6.6,1.79.6,1.94,0,.75-.6,1.94-.6,2.69.3.75.3,1.49.3,2.69s0,2.54-1.35,3.29c-.15.15-2.84,1.05-2.84,2.24.9,0,1.79-.15,3.89-.15.75,0,1.05,2.84,1.05,3.29.6,8.97,3.14,10.32,3.14,13.61,0,1.05-1.65,1.2-3.59,1.2-2.24,0-8.82-1.05-10.47-1.05-1.5,0-5.98,1.35-11.37,1.35ZM768.88,54.85c0,.6.45.9,1.2.9,1.05,0,1.65-.9,1.65-1.5s-.3-.9-.9-.9c-.3,0-.75.15-1.05.3-.75.45-.9.9-.9,1.2ZM783.38,76.69c.75,0,1.79-.45,1.79-1.5s-1.05-1.49-1.79-1.49-2.24.75-2.24,1.2c0,.3,0,.6.3.75.75,1.05,1.19,1.05,1.94,1.05ZM791.01,80.58c1.05,0,2.69,0,4.19-.3.3,0,1.65.15,2.69.15,1.5,0,2.54-.9,3.89-1.2,6.88,0,10.92-5.23,13.46-11.51.75-1.64.3-2.99,1.05-4.63.45-1.05,1.65-1.79,3.29-3.44-2.69,0-2.69-3.14-2.69-3.44,0-1.79-.3-5.53-3.74-8.97-4.49-4.49-6.88-4.93-14.65-4.93-3.89,0-11.22.3-11.22,3.44,0,4.79-1.2,4.79-1.2,6.73,0,.6.75,1.05.75,1.79,0,.45-.3,1.05-1.2,1.79-.6.45-1.05,1.79-1.79,2.39-1.79,1.2-2.54,1.2-2.54,2.09,0,.15.3.3.75.3,1.65,0,2.84-1.2,4.64-1.2.6,0,.6,1.05.6,1.5,0,2.24-4.94,1.64-4.94,3.14,0,.3.3.3.6.3.9,0,2.09,1.2,2.99,1.2,1.05,0,1.2,1.35,1.2,2.84v2.24c0,3.29-.15,5.53-.15,8.37,0,.15.45.6.6.75,1.2.6,2.39.6,3.44.6ZM831.83,56.05c.6,0,1.05-.3,1.05-.75s-.45-.75-.9-.75c-.6,0-1.05.45-1.05,1.05.15.3.45.45.9.45Z"/>
      <path class="cls-1" d="M643.9,27.59c-.2-.1-.43-.23-.66-.33.53.6.96,1.1,1.3,1.46-.27-.37-.47-.76-.63-1.13Z"/>
      <path class="cls-1" d="M287.42.33c-2.18-.9-5.35,0-5.55,2.99-.2,2.99,3.97,3.29,3.97,3.59s-1.98,2.69-3.18,4.19c-1.19,1.5-5.35,2.24-6.14,3.14s-3.76,1.05-4.36,1.49c-.59.45-5.95,1.05-6.74,2.09-.8,1.05-6.35.9-7.34,1.5-.99.6-6.54.6-7.73,1.2-1.19.6-7.73.3-8.72,0-.99-.3-3.37.45-3.77.9-.4.45-5.35-.6-6.15-.9-.79-.3-4.56-.6-5.35-.15-.79.45-6.74-.3-8.72-.3s-4.96-.3-6.54-.6c-1.59-.3-10.9-.15-12.89-1.05-1.98-.9-5.35-.45-6.94-.45s-8.13-1.5-9.52-2.09c-1.39-.6-8.72-.75-9.32-1.05-.59-.3-2.38.45-3.37.6-.99.15-3.57,0-4.36-1.2-.79-1.2-11.1-1.05-13.08-1.5-1.98-.45-6.54-.45-8.72-.6-2.18-.15-5.75-.45-3.96-1.35,1.78-.9,4.56-.3,6.74-.75,2.18-.45,3.96-.45,7.34-.9,3.37-.45,5.35.6,8.52.6s3.97.45,7.34.45,5.55.9,7.73,1.79c2.18.9,3.96.15,6.15-.3,2.18-.45,9.52,1.05,12.89,1.35,3.37.3,5.95,1.05,8.92,1.65,2.98.6,4.17.15,7.34,1.2,3.17,1.05,7.53,0,9.72.6,2.18.6,5.95-.75,7.53.45,1.59,1.2,6.34-.45,7.73,0,1.39.45,3.37-.45,5.15-.15,1.78.3,6.34-.3,7.73-.45s2.18-1.05,3.37-.9,2.58-1.05,3.96-1.35c1.39-.3,4.17-1.94,5.55-3.59,1.39-1.65,2.18-5.09-.8-6.43-2.97-1.35-6.14.45-6.74,2.24-.59,1.79-.4,4.34-1.98,4.93-1.59.6-5.95,1.79-6.94,2.09-.99.3-9.32.9-10.7-.3-1.39-1.2-10.31.6-12.29.15-1.98-.45-10.51-1.2-11.89-1.65-1.39-.45-9.52-.9-12.89-1.35-3.37-.45-8.13-.15-8.92-1.2-.79-1.05-8.53-.45-10.31-.6-1.78-.15-7.33-.3-8.92-.75-1.59-.45-6.34-1.2-8.33-1.35-1.98-.15-14.27.15-15.46.15s-6.94,0-8.33,1.2-5.97.96-7.76,1.26c-1.78.3-8.56,2.96-9.16,3.56-.35.36-5.2,3.23-9.83,7.99-3.15,3.23-4.66,5.99-5.22,6.35-1.39.9-2.23,2.99-3.62,5.38-1.39,2.39-1.19,1.79-.6,3.14.6,1.35,3.72-1.16,4.32-2.95.36-1.08,1.7-4.69,6.7-9.95,3.28-3.45,5.5-4.34,7.46-5.17,2.58-1.05,4.43-2.42,7.8-2.87,2.84-.38,3.78.26,7.73.45,3.17.15,6.34,1.35,8.92,1.94,2.58.6,8.92,1.05,11.5,2.24,2.58,1.2,5.55,1.05,8.53,1.79,2.97.75,4.76,2.09,7.93,1.79,3.17-.3,4.96,0,6.15.9,1.19.9,5.15,1.2,5.75.9.59-.3,7.53.3,10.9,2.09,3.37,1.79,6.34-.9,7.53,0,1.19.9,6.34.15,7.93,1.05,1.59.9,3.77-.3,5.55,1.05,1.78,1.35,7.14-.75,7.93-.3.79.45,6.54-.6,9.52-.15,2.97.45,8.13-1.49,10.11-1.35,1.98.15,7.73-.6,8.33-.75.6-.15,5.95-2.69,6.54-1.65.59,1.05,5.55-.45,6.54-.9.99-.45,5.15-2.09,5.75-2.09s3.57-2.09,4.36-2.09,5.35-2.84,7.53-3.89,5.95-3.74,7.34-7.93c1.39-4.19-.99-6.28-3.18-7.18Z"/>
      <path class="cls-1" d="M644.53,28.72c-.33-.37-.76-.86-1.3-1.46.23.1.47.23.66.33.17.37.37.76.63,1.13Z"/>
      <path class="cls-1" d="M743.66,14.96l-1.66,1.23s-.56-.37-1.36-.86c.86-.1,1.89-.23,3.02-.37Z"/>
      <path class="cls-1" d="M84.85,52.99c-.49,0-1.67-.49-2.65-.49s-4.02-1.76-4.51-1.96c-.49-.2-.98-.39-1.27-1.18-.29-.78-.88-.98-1.67-1.27-.79-.29-3.04-4.02-3.04-4.02l-1.08-3.24c-.29-.59.2-1.86.1-2.65-.2-1.18-.69-3.53-.49-4.71.2-1.18.59-2.55.79-2.26.2.29.59,1.76.88,2.94s1.47,2.16,2.35,2.65c.88.49,1.27,1.08,1.76,1.57s1.27.78,2.16,1.67c.88.88,1.57.78,2.45,1.18.88.39,1.76,1.47,2.35,1.67.59.2.69.88.69,1.27s2.16,1.67,2.74,1.96,1.57,2.06,2.16,3.14c.59,1.08,1.86,3.04.79,3.33-1.08.29-4.02.39-4.51.39ZM91.03,48.68c-.39-.29-1.08-1.27-1.86-1.67s-.98-1.27-1.37-2.16c-.39-.88-1.67-1.57-2.35-2.55-.69-.98-.69-2.06-.88-2.74s0-.98.2-1.37c.2-.39-.59-1.86-.29-3.63s.2-1.86.59-2.94c.39-1.08.88-2.16,1.47-2.65.59-.49.69-2.06.98-2.65s.59-1.08,1.08-1.37c.49-.29,0-2.25.49-3.04.49-.79.3-1.18,1.18-2.45.88-1.27.49-3.04.98-4.41.49-1.37.88.29.98,1.08.1.79.49,2.75.59,3.04.1.29.49,2.26,1.18,2.65.69.39.79,3.04.79,3.43s1.18,2.35,1.96,3.53c.78,1.18.98,2.25,1.67,3.92.69,1.67-.2,5.2-.39,6.76-.2,1.57-1.77,2.25-1.77,3.04s-1.18,1.47-1.37,1.96c-.2.49-1.18,1.76-1.67,2.25-.49.49-.98.88-1.08,1.57s-.69.69-1.08.39ZM93.57,49.76c.29-.59,1.67-1.76,1.57-2.45s2.45-2.25,2.75-3.04c.29-.78,3.63-2.45,4.41-3.33s2.16-1.37,2.26-1.67c.1-.29,3.33-1.37,3.73-2.45.39-1.08,1.86-2.55,2.16-3.53.29-.98.59-2.35.98-2.16s.59,1.67.49,3.24c-.1,1.57-.49,3.43-.3,4.12.2.69.3,2.84-.2,3.33-.49.49-1.08.39-1.18,1.57s.49.78-.39,1.96-1.57,2.55-2.35,3.33c-.78.79-1.27,1.08-2.06,1.47-.79.39-.59.39-1.27.98-.69.59-1.86,1.08-2.84,1.27-.98.2-2.06.79-3.43.88-1.37.1-3.83-.1-4.41-.39-.59-.29-.2-2.55.1-3.14Z"/>
    </g>
  </g>
</svg>